Patient4_TMGait_0pt4_01_right_20_GRF.mot
version=1
nRows=65
nColumns=19
inDegrees=no
endheader
time	F1x	F1y	F1z	M1x	M1y	M1z	F2x	F2y	F2z	M2x	M2y	M2z	EC1x	EC1y	EC1z	EC2x	EC2y	EC2z
25.75	4.2086	802.2042	93.5843	-249.6573	-88.8577	756.1942	23.5032	3.2331	-0.024534	0.061371	-3.6282	-3.4569	-0.0592	0.0182	-0.0073	-0.0462	0.0165	0.9585
25.763	1.6511	803.1077	87.5692	-250.4152	-82.4803	753.6404	15.858	3.3044	-0.04169	0.46811	-2.3835	-1.2381	-0.0592	0.0182	-0.0073	-0.0462	0.0165	0.9585
25.776	0.0085871	803.1687	82.2617	-250.907	-76.5473	749.9348	9.3178	3.345	-0.067744	0.82173	-1.3053	0.63628	-0.0592	0.0182	-0.0073	-0.0462	0.0165	0.9585
25.789	-0.65761	802.0712	77.9815	-250.9799	-71.4197	745.032	4.2624	3.3917	-0.08831	1.1093	-0.47186	2.103	-0.0592	0.0182	-0.0073	-0.0462	0.0165	0.9585
25.802	-0.47027	799.5766	74.8524	-250.5113	-67.2831	738.9233	0.74137	3.4291	-0.11405	1.3235	0.11465	3.1248	-0.0592	0.0182	-0.0073	-0.0462	0.0165	0.9585
25.815	0.40571	795.5171	72.7053	-249.4267	-64.0299	731.563	-1.4601	3.4792	-0.13619	1.4745	0.48293	3.7946	-0.0592	0.0182	-0.0073	-0.0462	0.0165	0.9585
25.828	1.7964	789.8214	71.3554	-247.6987	-61.5273	722.9396	-2.6381	3.4956	-0.16394	1.5578	0.69414	4.1488	-0.0592	0.0182	-0.0073	-0.0462	0.0165	0.9585
25.841	3.5785	782.4944	70.4948	-245.3474	-59.5045	713.0351	-3.0939	3.4207	-0.18839	1.564	0.79006	4.2103	-0.0592	0.0182	-0.0073	-0.0462	0.0165	0.9585
25.854	5.6585	773.6222	69.9215	-242.4256	-57.7786	701.8861	-3.1012	3.1998	-0.22118	1.4759	0.82175	4.0027	-0.0592	0.0182	-0.0073	-0.0462	0.0165	0.9585
25.867	7.9922	763.4326	69.4022	-239.037	-56.1248	689.6301	-2.8399	2.7046	-0.25491	1.2558	0.80542	3.4286	-0.0592	0.0182	-0.0073	-0.0462	0.0165	0.9585
25.88	10.5433	752.3141	68.8515	-235.3272	-54.4575	676.5669	-2.4923	1.8225	-0.29502	0.86331	0.77741	2.4277	-0.0592	0.0182	-0.0073	-0.0462	0.0165	0.9585
25.893	13.2815	740.824	68.1864	-231.4922	-52.6867	663.1499	-2.0962	0.41513	-0.33221	0.25193	0.7298	0.86351	-0.0592	0.0182	-0.0073	-0.0462	0.0165	0.9585
25.906	16.1877	729.7039	67.4733	-227.7701	-50.855	650.0095	-1.721	-1.6059	-0.3667	-0.60982	0.67427	-1.319	-0.0592	0.0182	-0.0073	-0.0462	0.0165	0.9585
25.919	19.2671	719.8062	66.7675	-224.4213	-48.9877	637.8603	-1.3704	-4.2653	-0.37393	-1.7224	0.58437	-4.1476	-0.0592	0.0182	-0.0073	-0.0462	0.0165	0.9585
25.932	22.5038	711.932	66.2328	-221.6746	-47.2177	627.397	-1.0352	-7.3887	-0.33828	-3.0131	0.43637	-7.4389	-0.0592	0.0182	-0.0073	-0.0462	0.0165	0.9585
25.945	25.8858	706.6867	65.9921	-219.6929	-45.6431	619.1513	-0.71875	-10.5458	-0.21868	-4.3025	0.19073	-10.7509	-0.0592	0.0182	-0.0073	-0.0462	0.0165	0.9585
25.958	29.3489	704.3437	66.2016	-218.5312	-44.4138	613.4214	-0.41387	-12.9564	0.02053	-5.263	-0.18381	-13.2867	-0.0592	0.0182	-0.0073	-0.0462	0.0165	0.9585
25.971	32.7943	704.6848	66.9055	-218.0986	-43.5979	610.1032	-0.16106	-13.303	0.42824	-5.3547	-0.7138	-13.6632	-0.0592	0.0182	-0.0073	-0.0462	0.0165	0.9585
25.984	36.0588	706.9227	68.1012	-218.1341	-43.2506	608.6559	0.0072159	-9.7483	1.0353	-3.8151	-1.4037	-9.9865	-0.0592	0.0182	-0.0073	-0.0462	0.0165	0.9585
25.997	38.9567	709.7048	69.6325	-218.2186	-43.3068	608.0739	-0.048257	0.13269	1.8512	0.35572	-2.2031	0.27866	-0.0592	0.0182	-0.0073	-0.0462	0.0165	0.9585
26.01	41.2733	711.1815	71.2609	-217.7965	-43.6588	606.9288	-0.46435	19.1779	2.8229	8.3269	-2.9866	20.0692	-0.0592	0.0182	-0.0073	-0.0462	0.0165	0.9585
26.023	42.7914	709.1639	72.5996	-216.2281	-44.0758	603.4693	-1.462	50.2807	3.8222	21.28	-3.5146	52.3986	-0.0592	0.0182	-0.0073	-0.0462	0.0165	0.9585
26.036	43.381	701.2713	73.2305	-212.832	-44.2773	595.7123	-3.2904	95.6305	4.6034	40.0972	-3.4151	99.5468	-0.0592	0.0182	-0.0073	-0.0462	0.0165	0.9585
26.049	42.9936	685.1946	72.6894	-206.9658	-43.9069	581.6742	-6.1986	155.615	4.7679	64.9007	-2.1611	161.9222	-0.0592	0.0182	-0.0073	-0.0462	0.0165	0.9585
26.062	41.7017	659.0166	70.6251	-198.1199	-42.6633	559.6182	-10.6738	227.3792	3.7733	94.4522	1.0012	236.5662	-0.0592	0.0182	-0.0073	-0.0462	0.0165	0.9585
26.075	39.6106	621.5976	66.7823	-186.0341	-40.2986	528.4134	-17.3215	303.398	0.86032	125.5915	7.05	315.6074	-0.0592	0.0182	-0.0073	-0.0462	0.0165	0.9585
26.088	36.8366	572.9249	61.1451	-170.7861	-36.7551	487.8461	-25.7967	373.983	-4.7167	154.2892	16.4803	388.8978	-0.0592	0.0182	-0.0073	-0.0462	0.0165	0.9585
26.101	33.4542	514.3896	53.9547	-152.8419	-32.1815	438.9106	-34.9336	433.6579	-12.4057	178.2793	28.1843	450.5433	-0.0592	0.0182	-0.0073	-0.0462	0.0165	0.9585
26.114	29.5103	448.4883	45.855	-132.9388	-27.0632	383.5998	-43.4939	482.4735	-21.5207	197.5928	40.9405	500.3916	-0.0592	0.0182	-0.0073	-0.0462	0.0165	0.9585
26.127	25.058	378.4454	37.5526	-111.988	-21.9304	324.5655	-50.3851	523.4409	-30.7318	213.5441	52.9852	541.3944	-0.0592	0.0182	-0.0073	-0.0462	0.0165	0.9585
26.14	20.1859	307.9199	29.6562	-91.0107	-17.2354	264.8992	-54.923	559.9727	-39.1963	227.6098	63.2271	577.016	-0.0592	0.0182	-0.0073	-0.0462	0.0165	0.9585
26.153	15.1142	240.6046	22.5318	-71.0485	-13.1994	207.7355	-56.9427	594.4784	-46.1381	240.8496	70.8775	609.7427	-0.0592	0.0182	-0.0073	-0.0462	0.0165	0.9585
26.166	10.1615	179.7157	16.4016	-53.0174	-9.9085	155.8319	-56.6695	627.9122	-51.6221	253.6799	76.1266	640.6599	-0.0592	0.0182	-0.0073	-0.0462	0.0165	0.9585
26.179	5.72	127.5498	11.3402	-37.5809	-7.2986	111.1718	-54.5725	660.0418	-55.8038	266.0098	79.3534	669.6893	-0.0592	0.0182	-0.0073	-0.0462	0.0165	0.9585
26.192	2.1083	85.1518	7.3752	-25.0424	-5.2944	74.6964	-51.2646	689.8643	-59.1667	277.4131	81.2864	696.0273	-0.0592	0.0182	-0.0073	-0.0462	0.0165	0.9585
26.205	-0.53104	52.4389	4.3929	-15.3793	-3.756	46.3989	-47.3152	716.188	-61.8408	287.3995	82.2878	718.6481	-0.0592	0.0182	-0.0073	-0.0462	0.0165	0.9585
26.218	-2.185	28.5429	2.2899	-8.3352	-2.6038	25.6032	-43.275	738.0517	-63.9849	295.5657	82.7219	736.7757	-0.0592	0.0182	-0.0073	-0.0462	0.0165	0.9585
26.231	-2.9375	12.2059	0.88115	-3.5357	-1.7165	11.2987	-39.5315	754.9097	-65.4802	301.6855	82.6258	749.9966	-0.0592	0.0182	-0.0073	-0.0462	0.0165	0.9585
26.244	-2.9587	1.999	0.03862	-0.55061	-1.0512	2.2913	-36.3445	766.6929	-66.3514	305.7161	82.1139	758.3608	-0.0592	0.0182	-0.0073	-0.0462	0.0165	0.9585
26.257	-2.5453	-3.5045	-0.39914	1.0479	-0.56702	-2.6328	-33.8366	773.771	-66.609	307.7882	81.2328	762.2993	-0.0592	0.0182	-0.0073	-0.0462	0.0165	0.9585
26.27	-1.9606	-5.7119	-0.54166	1.6799	-0.26107	-4.6691	-32.0492	776.8447	-66.503	308.1551	80.2251	762.5565	-0.0592	0.0182	-0.0073	-0.0462	0.0165	0.9585
26.283	-1.3598	-5.8449	-0.5266	1.7051	-0.073288	-4.8688	-30.9663	776.8666	-66.2216	307.175	79.2553	760.1009	-0.0592	0.0182	-0.0073	-0.0462	0.0165	0.9585
26.296	-0.83836	-4.8404	-0.41703	1.4021	0.011932	-4.0463	-30.5228	774.8543	-66.0041	305.2435	78.5208	755.9314	-0.0592	0.0182	-0.0073	-0.0462	0.0165	0.9585
26.309	-0.42099	-3.3666	-0.28667	0.96622	0.046551	-2.7938	-30.6175	771.7245	-65.9255	302.7328	78.0557	750.9278	-0.0592	0.0182	-0.0073	-0.0462	0.0165	0.9585
26.322	-0.11589	-1.8592	-0.14749	0.52435	0.033488	-1.4875	-31.0405	768.1334	-66.0392	299.9344	77.8382	745.6605	-0.0592	0.0182	-0.0073	-0.0462	0.0165	0.9585
26.335	0.09017	-0.53913	-0.035646	0.13946	0.011284	-0.33601	-31.55	764.5353	-66.2807	297.073	77.7227	740.4768	-0.0592	0.0182	-0.0073	-0.0462	0.0165	0.9585
26.348	0.21044	0.48948	0.058177	-0.16039	-0.023031	0.56806	-31.9014	761.1674	-66.6298	294.2958	77.6115	735.4967	-0.0592	0.0182	-0.0073	-0.0462	0.0165	0.9585
26.361	0.26339	1.2176	0.11743	-0.37523	-0.047954	1.2169	-31.9326	758.1795	-67.0078	291.7148	77.3916	730.7686	-0.0592	0.0182	-0.0073	-0.0462	0.0165	0.9585
26.374	0.27908	1.6903	0.16621	-0.51782	-0.078752	1.6414	-31.5804	755.7131	-67.3636	289.4353	77.0209	726.354	-0.0592	0.0182	-0.0073	-0.0462	0.0165	0.9585
26.387	0.27196	1.9759	0.19295	-0.60845	-0.10092	1.8971	-30.8464	753.9717	-67.6028	287.5847	76.4365	722.3857	-0.0592	0.0182	-0.0073	-0.0462	0.0165	0.9585
26.4	0.25763	2.1358	0.21553	-0.66449	-0.1277	2.0351	-29.7814	753.234	-67.6699	286.3129	75.6222	719.0949	-0.0592	0.0182	-0.0073	-0.0462	0.0165	0.9585
26.413	0.23748	2.2321	0.22319	-0.70164	-0.14658	2.1094	-28.4449	753.7917	-67.4825	285.7707	74.5388	716.7233	-0.0592	0.0182	-0.0073	-0.0462	0.0165	0.9585
26.426	0.21889	2.2997	0.23012	-0.72624	-0.16607	2.1527	-26.9352	755.8791	-67.0088	286.0723	73.2001	715.4889	-0.0592	0.0182	-0.0073	-0.0462	0.0165	0.9585
26.439	0.20343	2.35	0.23152	-0.74175	-0.17923	2.1802	-25.3333	759.5707	-66.2228	287.2552	71.6158	715.4686	-0.0592	0.0182	-0.0073	-0.0462	0.0165	0.9585
26.452	0.18704	2.3874	0.23834	-0.75219	-0.19712	2.2075	-23.7224	764.7018	-65.1533	289.2508	69.8392	716.5349	-0.0592	0.0182	-0.0073	-0.0462	0.0165	0.9585
26.465	0.17398	2.3961	0.24493	-0.75595	-0.21033	2.2214	-22.1644	770.8867	-63.8309	291.8924	67.9106	718.358	-0.0592	0.0182	-0.0073	-0.0462	0.0165	0.9585
26.478	0.15556	2.3574	0.25853	-0.74651	-0.22643	2.2123	-20.6768	777.5514	-62.3306	294.9266	65.8859	720.4434	-0.0592	0.0182	-0.0073	-0.0462	0.0165	0.9585
26.491	0.12425	2.2411	0.27753	-0.71209	-0.24493	2.1332	-19.2488	783.9925	-60.7189	298.0418	63.7932	722.1857	-0.0592	0.0182	-0.0073	-0.0462	0.0165	0.9585
26.504	0.065351	2.003	0.31136	-0.63472	-0.28143	1.924	-17.8424	789.5106	-59.0535	300.9213	61.6405	722.9793	-0.0592	0.0182	-0.0073	-0.0462	0.0165	0.9585
26.517	-0.02563	1.576	0.35627	-0.49134	-0.33687	1.5058	-16.385	793.473	-57.3671	303.2638	59.4013	722.2892	-0.0592	0.0182	-0.0073	-0.0462	0.0165	0.9585
26.53	-0.15015	0.87979	0.42005	-0.25449	-0.42256	0.80626	-14.7709	795.173	-55.7137	304.7393	57.0647	719.5116	-0.0592	0.0182	-0.0073	-0.0462	0.0165	0.9585
26.543	-0.30502	-0.15961	0.48993	0.099383	-0.525	-0.2372	-12.8662	793.8387	-54.1962	305.0042	54.6687	713.9725	-0.0592	0.0182	-0.0073	-0.0462	0.0165	0.9585
26.556	-0.46369	-1.5936	0.56678	0.58476	-0.63538	-1.6705	-10.5152	789.0231	-52.9011	303.8587	52.2412	705.2712	-0.0592	0.0182	-0.0073	-0.0462	0.0165	0.9585
26.569	-0.59851	-3.3975	0.62382	1.1904	-0.71913	-3.4625	-7.6097	780.8869	-51.8586	301.3596	49.7823	693.5353	-0.0592	0.0182	-0.0073	-0.0462	0.0165	0.9585
26.582	-0.64762	-5.4206	0.64593	1.8642	-0.74432	-5.4706	-4.1333	770.2011	-51.0662	297.8147	47.2998	679.4431	-0.0592	0.0182	-0.0073	-0.0462	0.0165	0.9585
